<svg width="192" height="64" viewBox="0 0 192 64" fill="none" xmlns="http://www.w3.org/2000/svg">
<path d="M175.804 10.2371C175.643 10.3456 175.442 10.5561 175.248 10.7599C174.988 11.0329 174.735 11.2993 174.587 11.3157C174.505 11.3256 174.393 11.319 174.334 11.319C174.311 11.319 174.295 11.296 174.298 11.2762C174.321 11.0362 174.446 9.7405 174.591 8.41194C174.604 8.30013 174.331 8.30342 174.295 8.41194C173.982 9.40836 173.637 10.3719 173.486 10.7797C173.472 10.8191 173.41 10.8093 173.41 10.7665V7.9647C173.41 7.79041 172.969 7.79041 172.956 7.9647C172.887 9.00059 172.752 10.0759 172.673 10.6185C172.67 10.6679 172.604 10.6613 172.601 10.6152L172.45 8.16859C172.45 8.14228 172.423 8.12584 172.4 8.13899C172.331 8.17517 172.196 8.25738 172.154 8.41194C172.118 8.5369 171.993 9.97399 171.976 10.9803C171.976 11.0888 171.989 11.1842 172.002 11.2729C172.025 11.4308 172.045 11.5689 171.976 11.7465C171.894 11.957 171.631 12.1773 171.536 12.2529C171.519 12.2661 171.493 12.2628 171.48 12.2431L171.328 12.003L170.763 11.1052C170.763 11.1052 170.759 11.0954 170.753 11.0954L170.204 10.6744C170.187 10.6613 170.161 10.6646 170.148 10.6843L169.97 10.9573C169.97 10.9573 169.96 10.9868 169.97 11C170.069 11.1315 170.588 11.7958 170.815 12.2727C170.884 12.4108 170.858 12.5324 170.832 12.664C170.809 12.7692 170.789 12.8745 170.815 12.9994C170.842 13.131 171.029 13.2559 171.243 13.4006C171.575 13.6275 171.973 13.8972 171.973 14.3148C171.973 16.9456 168.48 19.0042 168.48 19.0042C168.023 18.8168 167.487 18.6721 167.149 18.603C167.149 18.603 167.293 18.1295 167.501 17.9059C167.701 17.6888 168.148 17.5146 168.148 17.5146C168.148 17.5146 167.879 16.653 167.951 16.1038C167.974 15.9558 168.014 15.8473 168.05 15.7388C168.089 15.6401 168.125 15.5349 168.145 15.4C168.175 15.2257 168.142 15.0679 168.106 14.9199C168.063 14.7193 168.02 14.5286 168.145 14.3181C168.293 14.0748 168.714 13.8643 168.714 13.8643C168.714 13.8643 168.306 13.0159 167.948 12.5324C167.892 12.4568 167.839 12.3845 167.79 12.3154C167.494 11.9011 167.277 11.6018 166.787 11.3157C166.024 10.8685 165.419 10.829 164.551 10.9803C163.715 11.1283 163.219 11.3848 162.627 11.9997C162.236 12.4075 162.065 12.7035 161.861 13.2362C161.67 13.7328 161.604 14.568 161.604 14.568L161.229 15.3902C161.229 15.3902 159.052 14.3313 157.267 14.0189C156.619 13.7393 156.033 13.4269 155.465 13.1277C154.646 12.6936 153.863 12.2759 152.969 11.9997C152.084 11.7268 150.476 12.3812 148.164 13.371C147.602 13.6111 147.112 13.986 146.635 14.3477C145.948 14.8706 145.3 15.3671 144.514 15.3935C144.432 15.3967 144.353 15.4033 144.284 15.4033C144.037 15.4165 143.843 15.4263 143.554 15.3935C142.958 15.3277 142.61 15.2488 142.084 14.9627C141.521 14.6535 140.87 13.8643 140.87 13.8643L140.518 13.5124C140.518 13.5124 140.071 13.565 140.143 13.7097C140.614 14.5943 141.242 15.1797 141.242 15.1797L141.574 15.4987C141.603 15.5283 141.574 15.5776 141.534 15.5645L140.515 15.183C140.515 15.183 140.163 14.4595 139.732 14.3773C139.588 14.351 139.357 14.3773 139.357 14.3773C139.357 14.3773 139.716 15.2422 140.14 15.6302C140.278 15.7552 140.489 15.8867 140.65 15.9821C140.689 16.0051 140.666 16.0676 140.623 16.061L140.143 15.9821L139.361 15.3935C139.361 15.3935 139.068 15.3014 138.93 15.3935C138.739 15.5184 138.913 15.7289 139.081 15.9262C139.134 15.9887 139.18 16.0446 139.219 16.1005C139.423 16.3866 139.874 16.6069 140.157 16.7187C140.199 16.7352 140.186 16.8042 140.14 16.8042H138.611C138.479 16.8042 138.328 16.7549 138.183 16.7122C137.917 16.6332 137.684 16.5609 137.647 16.8042C137.608 17.0706 137.67 17.1956 138.078 17.3337C138.493 17.4718 141.038 17.8434 141.038 17.8434L141.587 18.0341C141.587 18.0341 141.61 18.0473 141.613 18.0604L141.696 18.3071C141.699 18.3235 141.696 18.3433 141.682 18.3498L140.607 19.1161L140.508 20.0171L141.37 19.4087L142.449 18.8201L143.803 17.8401C143.803 17.8401 146.467 16.6299 148.296 16.3307C148.763 16.2518 149.134 16.2452 149.509 16.2386C149.897 16.2287 150.279 16.2222 150.769 16.1334C151.153 16.0643 151.578 15.9295 151.939 15.8144C152.314 15.696 152.617 15.5973 152.728 15.6237C152.906 15.6631 153.126 15.8834 153.386 16.1498C153.643 16.4096 153.945 16.7154 154.277 16.916C154.734 17.1956 155.514 17.5047 155.514 17.5047L151.67 23.6411L149.572 26.4067L146.941 28.5837C146.941 28.5837 145.336 29.1986 144.705 30.4285C143.813 32.1715 144.172 36.1571 144.172 36.1571C144.172 36.1571 143.244 37.5712 142.84 38.5676C142.409 39.6167 142.074 41.3694 142.074 41.3694L141.035 45.1183C141.035 45.1183 138.417 46.2496 137.325 47.0421C136.299 47.7853 135.618 50.0413 135.618 50.0413C135.618 50.0413 134.829 50.6496 134.069 51.531C133.017 52.7543 130.735 53.9645 130.735 53.9645L130.048 54.7701L128.403 55.8488H127.384C127.384 55.8488 127.256 56.6742 127.384 57.1806C127.617 58.1343 129.028 59.0847 129.028 59.0847C129.028 59.0847 130.104 61.3044 131.422 61.8503C132.55 62.3173 134.54 61.8503 134.54 61.8503L135.306 61.3011C135.306 61.3011 135.572 61.1038 135.306 60.9493C135.174 60.8703 135.01 60.8177 134.823 60.7618C134.395 60.6303 133.869 60.4658 133.402 59.8904C132.596 58.8874 133.224 56.8682 133.224 56.8682V55.8488C133.224 55.8488 134.313 54.6386 135.109 53.9645C135.763 53.412 136.875 52.6721 136.875 52.6721L141.031 49.7124C141.031 49.7124 143.429 48.545 144.701 47.4367C144.987 47.1835 145.28 46.8843 145.563 46.562C146.079 47.9103 146.313 49.4131 147.825 50.8601C147.917 50.9456 148.098 50.9259 148.296 50.8601C148.621 50.7516 148.983 50.5214 148.983 50.5214C148.983 50.5214 148.664 48.9758 148.582 47.9695C148.552 47.611 148.476 47.2789 148.404 46.9599C148.24 46.22 148.092 45.5722 148.582 44.8881C149.016 44.2831 150.18 43.849 150.18 43.849C150.18 43.849 153.311 43.576 155.32 43.4971C157.937 43.3985 160.91 43.8852 162.028 43.4971C162.512 43.3327 163.952 42.7999 164.36 41.7312C164.639 41.0077 164.62 40.4782 164.36 39.7515C163.877 38.4032 161.223 36.1604 161.223 36.1604L155.142 31.8459L156.671 29.8662L161.219 25.3971L163.123 22.125L163.39 21.0365C164.274 21.7995 165.705 22.102 167.089 22.398C167.869 22.5624 168.635 22.7301 169.283 22.9669C169.849 23.1774 170.516 22.9669 170.792 22.6315C171.568 21.7008 172.055 20.1158 172.585 18.3729C172.969 17.1232 173.374 15.7947 173.93 14.568C174.104 14.1899 174.143 13.8413 174.176 13.5058C174.226 13.0915 174.268 12.6969 174.554 12.2727C174.683 12.0852 174.804 11.9668 174.929 11.8419C175.021 11.7498 175.117 11.6544 175.222 11.5295C175.462 11.2335 175.571 11.0756 175.758 10.806C175.827 10.7073 175.906 10.5922 176.005 10.4475C176.097 10.3522 175.896 10.1647 175.791 10.2371H175.804ZM141.715 18.3498C141.715 18.3498 141.728 18.3367 141.728 18.3235C141.728 18.3334 141.725 18.34 141.715 18.3498ZM156.112 39.8501C155.56 39.7679 154.938 39.7416 154.524 39.9291C154.31 40.0244 154.231 40.156 154.162 40.2678C154.097 40.3763 154.037 40.4717 153.879 40.5144C152.627 40.8663 148.611 41.1031 148.611 41.1031C148.611 41.1031 148.782 39.9159 149.167 39.2779C149.549 38.6498 150.522 37.9625 150.522 37.9625C150.522 37.9625 152.107 38.6597 153.153 39.0214C154.037 39.3338 155.228 39.6397 156.112 39.8501Z" fill="#1964FF"/>
<path d="M153.922 17.5538C153.507 17.3006 153.165 16.952 152.886 16.6758C152.8 16.5837 152.685 16.4752 152.603 16.3962C152.481 16.4324 152.32 16.4817 152.189 16.5212C151.814 16.6396 151.353 16.7876 150.923 16.8665C150.38 16.9619 149.959 16.9717 149.551 16.9783C149.193 16.9882 148.858 16.9915 148.44 17.0605C146.884 17.317 144.612 18.3003 144.201 18.4844L142.872 19.448L141.79 20.0399L141.554 20.2043V40.4057C141.698 39.7776 141.925 38.9291 142.182 38.2945C142.517 37.4723 143.162 36.4233 143.445 35.9728C143.372 34.9862 143.214 31.7668 144.073 30.0962C144.721 28.8334 146.148 28.1362 146.579 27.9488L149.055 25.9L151.084 23.2265L154.458 17.8366C154.274 17.7511 154.083 17.6492 153.922 17.5505V17.5538Z" fill="#31D6D0"/>
<path d="M172.667 20.6285C172.315 21.6085 171.917 22.4734 171.391 23.1048C170.878 23.723 169.872 23.9565 169.056 23.6573C168.455 23.4336 167.734 23.2824 166.968 23.1179C165.903 22.891 164.808 22.6575 163.9 22.2136L163.851 22.401L161.845 25.8573L157.26 30.3625L156.234 31.6944L161.71 35.5814L161.733 35.6044C162.019 35.8478 164.558 38.0149 165.09 39.5079C165.422 40.432 165.416 41.1324 165.087 42.0039C164.725 42.9477 163.791 43.6876 162.305 44.2006C161.522 44.4703 160.263 44.4045 158.665 44.319C157.629 44.2631 156.458 44.2006 155.383 44.2401C153.62 44.3091 150.946 44.5327 150.384 44.5788C149.983 44.7399 149.411 45.0523 149.217 45.322C148.931 45.7166 148.996 46.0619 149.161 46.7985C149.233 47.1241 149.319 47.499 149.352 47.9101C149.434 48.8604 149.74 50.36 149.743 50.3732L149.842 50.8697L149.414 51.1427C149.371 51.1723 148.967 51.4255 148.566 51.5603C147.931 51.7741 147.549 51.5866 147.352 51.3959C146.129 50.2252 145.659 49.0281 145.294 47.9429C145.27 47.9594 145.251 47.9824 145.228 47.9988C144.083 48.9986 142.146 50.0048 141.561 50.2975V60.9096L192 31.7865L172.664 20.6252L172.667 20.6285Z" fill="#31D6D0"/>
<path d="M142.465 14.3147C142.879 14.5416 143.126 14.6008 143.662 14.66C143.892 14.6863 144.043 14.6764 144.277 14.6698C144.349 14.6665 144.428 14.66 144.52 14.66C145.07 14.6369 145.602 14.2325 146.22 13.7622C146.707 13.3906 147.256 12.973 147.904 12.6967C150.463 11.5984 152.09 10.9472 153.218 11.2991C154.175 11.5984 154.984 12.0259 155.839 12.483C156.372 12.7658 156.918 13.0585 157.51 13.315C158.737 13.5452 160.091 14.0779 160.887 14.4199L160.904 14.3837C160.917 14.2653 160.94 14.0845 160.969 13.874L141.557 2.66675V13.5057C141.797 13.7754 142.189 14.1634 142.462 14.3147H142.465Z" fill="#31D6D0"/>
<path d="M149.798 39.6724C149.703 39.8303 149.614 40.0605 149.542 40.3038C150.755 40.2117 152.469 40.0605 153.363 39.8829C153.202 39.8336 153.051 39.7842 152.906 39.7316C152.163 39.4751 151.17 39.0608 150.624 38.8273C150.315 39.0805 149.956 39.4159 149.798 39.6757V39.6724Z" fill="#31D6D0"/>
<path d="M141.557 15.5509H141.596L141.554 15.5377V15.5509H141.557Z" fill="#31D6D0"/>
<path d="M43.0173 24.7329C40.9422 24.7329 39.3703 25.486 38.5219 26.6501V25.1736H33.8062V40.8861H38.5219V32.3064C38.5219 30.0735 39.7156 29.0705 41.4454 29.0705C42.9548 29.0705 44.1781 29.9814 44.1781 31.9315V40.8894H48.8939V31.2409C48.8939 26.9987 46.1907 24.7362 43.0173 24.7362V24.7329Z" fill="#1964FF"/>
<path d="M56.3449 34.9172H67.5028C67.6278 34.3187 67.6902 33.6906 67.6902 33.0329C67.6902 28.2876 64.2965 24.736 59.709 24.736C54.7434 24.736 51.3496 28.35 51.3496 33.0329C51.3496 37.7157 54.6809 41.3298 60.0543 41.3298C63.0403 41.3298 65.3653 40.2314 66.9043 38.0939L63.1324 35.9268C62.5042 36.6174 61.4026 37.1205 60.1168 37.1205C58.387 37.1205 56.9434 36.5549 56.3449 34.9205V34.9172ZM56.2495 31.3985C56.6902 29.797 57.8839 28.9157 59.6761 28.9157C61.0902 28.9157 62.5043 29.5767 63.0074 31.3985H56.2495Z" fill="#1964FF"/>
<path d="M75.0148 40.886H80.7335L84.318 27.9063L87.9025 40.886H93.6212L99.6853 18.8859H94.4039L90.6024 34.286L86.3602 18.8859H82.2726L78.0304 34.286L74.2289 18.8859H68.9475L75.0115 40.886H75.0148Z" fill="#1964FF"/>
<path d="M75.0148 40.886H80.7335L84.318 27.9063L87.9025 40.886H93.6212L99.6853 18.8859H94.4039L90.6024 34.286L86.3602 18.8859H82.2726L78.0304 34.286L74.2289 18.8859H68.9475L75.0115 40.886H75.0148Z" fill="#31D6D0"/>
<path d="M113.139 25.1736V26.6501C112.103 25.4564 110.56 24.7329 108.456 24.7329C104.339 24.7329 100.945 28.347 100.945 33.0298C100.945 37.7127 104.339 41.3268 108.456 41.3268C110.56 41.3268 112.103 40.6033 113.139 39.4096V40.8861H117.854V25.1736H113.139ZM109.4 36.8642C107.232 36.8642 105.661 35.3877 105.661 33.0298C105.661 30.672 107.232 29.1954 109.4 29.1954C111.567 29.1954 113.139 30.672 113.139 33.0298C113.139 35.3877 111.567 36.8642 109.4 36.8642Z" fill="#1964FF"/>
<path d="M131.212 25.1733L128.259 34.789L124.77 25.1733H119.584L125.839 40.1657C125.148 42.0829 124.109 42.7735 121.909 42.7735V47.1735C126.309 47.3938 129.108 45.4141 130.867 40.4156L136.241 25.1733H131.212Z" fill="#1964FF"/>
<path d="M15.4166 14.6827C6.90259 14.6827 0 21.5853 0 30.0993C0 38.6133 6.90259 45.5159 15.4166 45.5159C23.9305 45.5159 30.8331 38.6133 30.8331 30.0993C30.8331 21.5853 23.9305 14.6827 15.4166 14.6827ZM15.4166 38.4423C10.8093 38.4423 7.0736 34.7065 7.0736 30.0993C7.0736 25.4921 10.8093 21.7563 15.4166 21.7563C20.0238 21.7563 23.7595 25.4921 23.7595 30.0993C23.7595 34.7065 20.0238 38.4423 15.4166 38.4423Z" fill="#31D6D0"/>
<path style="mix-blend-mode:multiply" d="M30.6163 27.5209C29.1825 27.8629 26.5418 31.7992 24.766 31.0758C24.3287 30.8982 24.0754 30.4904 23.9308 30.1714C23.8946 30.3917 23.8288 30.7074 23.7006 31.0659C23.6315 31.6545 23.5032 32.2267 23.3191 32.7726C23.4835 33.0226 23.7828 33.2725 24.2103 33.6211C24.7463 34.0617 25.1672 34.407 25.8447 34.6865C27.1075 35.2094 28.5215 35.2094 29.3371 34.8049C29.6561 34.6438 30.0671 34.338 30.2381 34.0486C30.3072 33.9302 30.373 33.7954 30.4058 33.723C30.6854 32.5589 30.8366 31.3454 30.8366 30.0958C30.8366 29.2177 30.761 28.3562 30.6196 27.5209H30.6163Z" fill="url(#paint0_radial_501_2297)"/>
<path d="M15.4166 14.6827C6.90259 14.6827 0 21.5853 0 30.0993H7.0736C7.0736 25.4921 10.8093 21.7563 15.4166 21.7563C20.0238 21.7563 23.7595 25.4921 23.7595 30.0993C23.7595 32.0625 25.3446 33.6509 27.298 33.6509C29.2513 33.6509 30.8364 32.0593 30.8364 30.0993C30.8364 21.5853 23.9338 14.6827 15.4198 14.6827H15.4166Z" fill="url(#paint1_linear_501_2297)"/>
<defs>
<radialGradient id="paint0_radial_501_2297" cx="0" cy="0" r="1" gradientUnits="userSpaceOnUse" gradientTransform="translate(26.4794 31.3947) scale(5.1531 5.1531)">
<stop stop-color="#09C5BE"/>
<stop offset="0.17" stop-color="#49D4CE"/>
<stop offset="0.43" stop-color="#AAEAE8"/>
<stop offset="0.61" stop-color="#E7F9F8"/>
<stop offset="0.7" stop-color="white"/>
</radialGradient>
<linearGradient id="paint1_linear_501_2297" x1="24.5948" y1="15.8937" x2="16.3612" y2="25.5728" gradientUnits="userSpaceOnUse">
<stop stop-color="#69FFFA"/>
<stop offset="1" stop-color="#31D6D0"/>
</linearGradient>
</defs>
</svg>
