<svg width="16" height="19" viewBox="0 0 16 19" fill="none" xmlns="http://www.w3.org/2000/svg">
<path d="M2.29056 18.6601C1.79762 18.6601 1.37548 18.4845 1.02415 18.1331C0.672818 17.7818 0.497451 17.36 0.498048 16.8676V4.32007H2.29056V16.8676H12.1494V18.6601H2.29056ZM5.87557 15.0751C5.38263 15.0751 4.9605 14.8995 4.60917 14.5481C4.25784 14.1968 4.08247 13.775 4.08307 13.2826V2.52756C4.08307 2.03462 4.25873 1.61248 4.61006 1.26115C4.9614 0.909817 5.38323 0.73445 5.87557 0.735048H13.9419C14.4348 0.735048 14.8569 0.910714 15.2083 1.26205C15.5596 1.61338 15.735 2.03521 15.7344 2.52756V13.2826C15.7344 13.7755 15.5587 14.1977 15.2074 14.549C14.856 14.9003 14.4342 15.0757 13.9419 15.0751H5.87557Z" fill="#001375"/>
</svg>
