<svg width="65" height="61" viewBox="0 0 65 61" fill="none" xmlns="http://www.w3.org/2000/svg">
<path d="M48.804 8.23707C48.6429 8.34559 48.4423 8.55605 48.2482 8.75994C47.9884 9.03289 47.7352 9.29926 47.5873 9.3157C47.505 9.32556 47.3932 9.31899 47.334 9.31899C47.311 9.31899 47.2946 9.29597 47.2979 9.27624C47.3209 9.03618 47.4458 7.7405 47.5905 6.41194C47.6037 6.30013 47.3307 6.30342 47.2946 6.41194C46.9822 7.40836 46.6369 8.3719 46.4856 8.77967C46.4724 8.81913 46.41 8.80927 46.41 8.76652V5.9647C46.41 5.79041 45.9693 5.79041 45.9562 5.9647C45.8871 7.00059 45.7523 8.07593 45.6733 8.61853C45.6701 8.66786 45.6043 8.66128 45.601 8.61525L45.4497 6.16859C45.4497 6.14228 45.4234 6.12584 45.4004 6.13899C45.3313 6.17517 45.1965 6.25738 45.1537 6.41194C45.1176 6.5369 44.9926 7.97399 44.9762 8.98027C44.9762 9.08879 44.9893 9.18416 45.0025 9.27295C45.0255 9.4308 45.0452 9.56892 44.9762 9.7465C44.894 9.95696 44.6309 10.1773 44.5355 10.2529C44.5191 10.2661 44.4928 10.2628 44.4796 10.2431L44.3283 10.003L43.7627 9.10523C43.7627 9.10523 43.7594 9.09537 43.7528 9.09537L43.2037 8.67444C43.1872 8.66129 43.1609 8.66457 43.1478 8.6843L42.9702 8.95725C42.9702 8.95725 42.9603 8.98685 42.9702 9C43.0688 9.13154 43.5884 9.79582 43.8153 10.2727C43.8844 10.4108 43.8581 10.5324 43.8318 10.664C43.8087 10.7692 43.789 10.8745 43.8153 10.9994C43.8416 11.131 44.0291 11.2559 44.2428 11.4006C44.575 11.6275 44.9729 11.8972 44.9729 12.3148C44.9729 14.9456 41.4805 17.0042 41.4805 17.0042C41.0234 16.8168 40.4873 16.6721 40.1486 16.603C40.1486 16.603 40.2933 16.1295 40.5005 15.9059C40.7011 15.6888 41.1483 15.5146 41.1483 15.5146C41.1483 15.5146 40.8787 14.653 40.951 14.1038C40.974 13.9558 41.0135 13.8473 41.0497 13.7388C41.0891 13.6401 41.1253 13.5349 41.1451 13.4C41.1746 13.2257 41.1418 13.0679 41.1056 12.9199C41.0628 12.7193 41.0201 12.5286 41.1451 12.3181C41.293 12.0748 41.714 11.8643 41.714 11.8643C41.714 11.8643 41.3062 11.0159 40.9477 10.5324C40.8918 10.4568 40.8392 10.3845 40.7899 10.3154C40.4939 9.90106 40.2769 9.6018 39.7869 9.3157C39.024 8.86846 38.4189 8.829 37.5507 8.98027C36.7154 9.12825 36.2189 9.38476 35.6269 9.99971C35.2356 10.4075 35.0646 10.7035 34.8607 11.2362C34.67 11.7328 34.6042 12.568 34.6042 12.568L34.2293 13.3902C34.2293 13.3902 32.0523 12.3313 30.2666 12.0189C29.6188 11.7393 29.0335 11.4269 28.4645 11.1277C27.6457 10.6936 26.863 10.2759 25.9686 9.99971C25.0839 9.72676 23.4759 10.3812 21.164 11.371C20.6017 11.6111 20.1117 11.986 19.6349 12.3477C18.9476 12.8706 18.2997 13.3671 17.5138 13.3935C17.4316 13.3967 17.3526 13.4033 17.2836 13.4033C17.0369 13.4165 16.8429 13.4263 16.5535 13.3935C15.9583 13.3277 15.6097 13.2488 15.0836 12.9627C14.5212 12.6535 13.8701 11.8643 13.8701 11.8643L13.5182 11.5124C13.5182 11.5124 13.071 11.565 13.1433 11.7097C13.6136 12.5943 14.2417 13.1797 14.2417 13.1797L14.5739 13.4987C14.6035 13.5283 14.5739 13.5776 14.5344 13.5645L13.515 13.183C13.515 13.183 13.1631 12.4595 12.7323 12.3773C12.5876 12.351 12.3574 12.3773 12.3574 12.3773C12.3574 12.3773 12.7158 13.2422 13.1401 13.6302C13.2782 13.7552 13.4886 13.8867 13.6498 13.9821C13.6892 14.0051 13.6662 14.0676 13.6235 14.061L13.1433 13.9821L12.3607 13.3935C12.3607 13.3935 12.068 13.3014 11.9299 13.3935C11.7392 13.5184 11.9134 13.7289 12.0812 13.9262C12.1338 13.9887 12.1798 14.0446 12.2193 14.1005C12.4232 14.3866 12.8737 14.6069 13.1565 14.7187C13.1993 14.7352 13.1861 14.8042 13.1401 14.8042H11.6109C11.4794 14.8042 11.3281 14.7549 11.1834 14.7122C10.917 14.6332 10.6835 14.5609 10.6474 14.8042C10.6079 15.0706 10.6704 15.1956 11.0782 15.3337C11.4925 15.4718 14.0378 15.8434 14.0378 15.8434L14.587 16.0341C14.587 16.0341 14.61 16.0473 14.6133 16.0604L14.6955 16.3071C14.6988 16.3235 14.6955 16.3433 14.6824 16.3498L13.607 17.1161L13.5084 18.0171L14.37 17.4087L15.4486 16.8201L16.8035 15.8401C16.8035 15.8401 19.4672 14.6299 21.2956 14.3307C21.7625 14.2518 22.1342 14.2452 22.509 14.2386C22.8971 14.2287 23.2785 14.2222 23.7685 14.1334C24.1533 14.0643 24.5775 13.9295 24.9392 13.8144C25.3141 13.696 25.6167 13.5973 25.7285 13.6237C25.9061 13.6631 26.1264 13.8834 26.3862 14.1498C26.6427 14.4096 26.9452 14.7154 27.2774 14.916C27.7345 15.1956 28.5139 15.5047 28.5139 15.5047L24.6696 21.6411L22.5715 24.4067L19.9407 26.5837C19.9407 26.5837 18.3359 27.1986 17.7045 28.4285C16.8133 30.1715 17.1718 34.1571 17.1718 34.1571C17.1718 34.1571 16.2444 35.5712 15.8399 36.5676C15.4091 37.6167 15.0737 39.3694 15.0737 39.3694L14.0345 43.1183C14.0345 43.1183 11.4169 44.2496 10.3251 45.0421C9.29907 45.7853 8.61835 48.0413 8.61835 48.0413C8.61835 48.0413 7.82911 48.6496 7.06946 49.5309C6.01714 50.7543 3.7349 51.9645 3.7349 51.9645L3.0476 52.7701L1.40335 53.8488H0.383905C0.383905 53.8488 0.255653 54.6742 0.383905 55.1806C0.61739 56.1343 2.02816 57.0847 2.02816 57.0847C2.02816 57.0847 3.10352 59.3044 4.42221 59.8503C5.55017 60.3173 7.53972 59.8503 7.53972 59.8503L8.30595 59.3011C8.30595 59.3011 8.57232 59.1038 8.30595 58.9493C8.17441 58.8703 8.00998 58.8177 7.82253 58.7618C7.39503 58.6303 6.86886 58.4658 6.40189 57.8904C5.59621 56.8874 6.22431 54.8682 6.22431 54.8682V53.8488C6.22431 53.8488 7.31281 52.6386 8.10863 51.9645C8.76305 51.412 9.87456 50.6721 9.87456 50.6721L14.0312 47.7124C14.0312 47.7124 16.4286 46.545 17.7012 45.4367C17.9873 45.1835 18.28 44.8843 18.5628 44.562C19.0791 45.9103 19.3126 47.4131 20.8253 48.8601C20.9174 48.9456 21.0983 48.9259 21.2956 48.8601C21.6211 48.7516 21.9829 48.5214 21.9829 48.5214C21.9829 48.5214 21.6639 46.9758 21.5817 45.9695C21.5521 45.611 21.4764 45.2789 21.4041 44.9599C21.2397 44.22 21.0917 43.5722 21.5817 42.8881C22.0158 42.2831 23.1799 41.849 23.1799 41.849C23.1799 41.849 26.3106 41.576 28.3198 41.4971C30.9375 41.3985 33.9103 41.8852 35.0284 41.4971C35.5118 41.3327 36.9522 40.7999 37.36 39.7312C37.6395 39.0077 37.6198 38.4782 37.36 37.7515C36.8766 36.4032 34.2227 34.1604 34.2227 34.1604L28.1423 29.8459L29.6714 27.8662L34.2194 23.3971L36.1235 20.125L36.3899 19.0365C37.2745 19.7995 38.705 20.102 40.0894 20.398C40.8688 20.5624 41.635 20.7301 42.2829 20.9669C42.8485 21.1774 43.5161 20.9669 43.7923 20.6315C44.5684 19.7008 45.0551 18.1158 45.5845 16.3729C45.9693 15.1232 46.3738 13.7947 46.9296 12.568C47.1039 12.1899 47.1433 11.8413 47.1762 11.5058C47.2255 11.0915 47.2683 10.6969 47.5544 10.2727C47.6826 10.0852 47.8043 9.96683 47.9293 9.84186C48.0213 9.74978 48.1167 9.65442 48.2219 9.52945C48.462 9.23349 48.5705 9.07564 48.758 8.80598C48.827 8.70732 48.906 8.59223 49.0046 8.44753C49.0967 8.35216 48.8961 8.16472 48.7909 8.23707H48.804ZM14.7153 16.3498C14.7153 16.3498 14.7284 16.3367 14.7284 16.3235C14.7284 16.3334 14.7251 16.34 14.7153 16.3498ZM29.1124 37.8501C28.5599 37.7679 27.9384 37.7416 27.524 37.9291C27.3103 38.0244 27.2313 38.156 27.1623 38.2678C27.0965 38.3763 27.0373 38.4717 26.8795 38.5144C25.6265 38.8663 21.6113 39.1031 21.6113 39.1031C21.6113 39.1031 21.7823 37.9159 22.167 37.2779C22.5485 36.6498 23.5219 35.9625 23.5219 35.9625C23.5219 35.9625 25.107 36.6597 26.1527 37.0214C27.0373 37.3338 28.2278 37.6397 29.1124 37.8501Z" fill="#1964FF"/>
<path d="M26.9216 15.5538C26.5072 15.3006 26.1652 14.952 25.8857 14.6758C25.8002 14.5837 25.6851 14.4752 25.6029 14.3962C25.4812 14.4324 25.3201 14.4817 25.1885 14.5212C24.8136 14.6396 24.3532 14.7876 23.9224 14.8665C23.3798 14.9619 22.9589 14.9717 22.5511 14.9783C22.1927 14.9882 21.8573 14.9915 21.4396 15.0605C19.8842 15.317 17.6118 16.3003 17.2007 16.4844L15.8722 17.448L14.7902 18.0399L14.5535 18.2043V38.4057C14.6982 37.7776 14.9251 36.9291 15.1816 36.2945C15.517 35.4723 16.1616 34.4233 16.4444 33.9728C16.372 32.9862 16.2142 29.7668 17.0725 28.0962C17.7203 26.8334 19.1475 26.1362 19.5783 25.9488L22.0546 23.9L24.0836 21.2265L27.4576 15.8366C27.2734 15.7511 27.0827 15.6492 26.9216 15.5505V15.5538Z" fill="#31D6D0"/>
<path d="M45.6668 18.6285C45.315 19.6085 44.9171 20.4734 44.3909 21.1048C43.8779 21.723 42.8716 21.9565 42.0561 21.6573C41.4543 21.4336 40.7341 21.2824 39.9679 21.1179C38.9024 20.891 37.8073 20.6575 36.8997 20.2136L36.8503 20.401L34.8443 23.8573L30.2602 28.3625L29.2341 29.6944L34.7095 33.5814L34.7325 33.6044C35.0186 33.8478 37.5574 36.0149 38.0901 37.5079C38.4222 38.432 38.4157 39.1324 38.0868 40.0039C37.7251 40.9477 36.7911 41.6876 35.3047 42.2006C34.5221 42.4703 33.2626 42.4045 31.6644 42.319C30.6285 42.2631 29.4578 42.2006 28.3824 42.2401C26.6198 42.3091 23.9462 42.5327 23.3839 42.5788C22.9827 42.7399 22.4105 43.0523 22.2165 43.322C21.9304 43.7166 21.9961 44.0619 22.1605 44.7985C22.2329 45.1241 22.3184 45.499 22.3513 45.9101C22.4335 46.8604 22.7393 48.36 22.7426 48.3732L22.8413 48.8697L22.4138 49.1427C22.371 49.1723 21.9665 49.4255 21.5653 49.5603C20.9306 49.7741 20.5492 49.5866 20.3519 49.3959C19.1285 48.2252 18.6583 47.0281 18.2933 45.9429C18.2702 45.9594 18.2505 45.9824 18.2275 45.9988C17.0831 46.9986 15.1461 48.0048 14.5608 48.2975V58.9096L65 29.7865L45.6636 18.6252L45.6668 18.6285Z" fill="#31D6D0"/>
<path d="M15.4648 12.3147C15.8791 12.5416 16.1257 12.6008 16.6618 12.66C16.892 12.6863 17.0433 12.6764 17.2767 12.6698C17.3491 12.6665 17.428 12.66 17.5201 12.66C18.0693 12.6369 18.602 12.2325 19.2202 11.7622C19.7069 11.3906 20.2561 10.973 20.904 10.6967C23.4624 9.59835 25.0902 8.94723 26.2182 9.2991C27.1752 9.59835 27.9841 10.0259 28.8392 10.483C29.3719 10.7658 29.9178 11.0585 30.5097 11.315C31.7363 11.5452 33.0912 12.0779 33.887 12.4199L33.9035 12.3837C33.9166 12.2653 33.9396 12.0845 33.9692 11.874L14.5571 0.666748V11.5057C14.7972 11.7754 15.1885 12.1634 15.4615 12.3147H15.4648Z" fill="#31D6D0"/>
<path d="M22.7983 37.6724C22.7029 37.8303 22.6141 38.0605 22.5417 38.3038C23.7552 38.2117 25.4685 38.0605 26.363 37.8829C26.2019 37.8336 26.0506 37.7842 25.9059 37.7316C25.1627 37.4751 24.1696 37.0608 23.6237 36.8273C23.3145 37.0805 22.9561 37.4159 22.7983 37.6757V37.6724Z" fill="#31D6D0"/>
<path d="M14.5567 13.5509H14.5962L14.5535 13.5377V13.5509H14.5567Z" fill="#31D6D0"/>
</svg>
